<?xml version="1.0" encoding="UTF-8"?>
<svg id="Layer_1" data-name="Layer 1" xmlns="http://www.w3.org/2000/svg" xmlns:xlink="http://www.w3.org/1999/xlink" viewBox="0 0 1101.78 217.62">
  <defs>
    <style>
      .cls-1 {
        fill: url(#linear-gradient-2);
      }

      .cls-2 {
        fill: url(#linear-gradient);
      }
    </style>
    <linearGradient id="linear-gradient" x1="8.3" y1="108.58" x2="255.27" y2="108.58" gradientUnits="userSpaceOnUse">
      <stop offset="0" stop-color="#04f"/>
      <stop offset="1" stop-color="#ff1b99"/>
    </linearGradient>
    <linearGradient id="linear-gradient-2" x1="335.22" y1="111.34" x2="1058.35" y2="111.34" xlink:href="#linear-gradient"/>
  </defs>
  <path class="cls-2" d="M30.29,208.97c-3.62,0-7.23-.9-10.53-2.69-7.07-3.85-11.46-11.25-11.46-19.31v-44.43c0-46.71,37.63-84.79,84.17-85.53,13.76-28.85,43.22-48.83,77.25-48.83,47.17,0,85.55,38.38,85.55,85.54v55.22c0,9.51-4.78,18.26-12.78,23.39l-48.53,31.23c-6.78,4.36-15.35,4.66-22.43.82-7.07-3.86-11.46-11.26-11.46-19.31v-42.53c0-32.52-23.56-59.63-54.51-65.18-1.34,5.23-2.04,10.72-2.04,16.36v57.12c0,9.51-4.78,18.26-12.78,23.39l-48.53,31.23c-3.62,2.33-7.75,3.51-11.9,3.51ZM85.86,76.81c-32.76,3.95-58.24,31.93-58.24,65.74v44.43c0,1.31.75,2,1.39,2.34.62.35,1.6.61,2.7-.09l48.56-31.24c2.45-1.57,3.9-4.24,3.9-7.14v-57.12c0-5.79.58-11.45,1.68-16.92ZM113.23,59.22c37.86,8.81,66.16,42.83,66.16,83.32v42.53c0,1.31.75,2,1.39,2.34.63.35,1.62.6,2.72-.09l48.55-31.24c2.45-1.57,3.9-4.24,3.9-7.14v-55.22c0-36.51-29.7-66.22-66.22-66.22-23.88,0-44.85,12.71-56.5,31.71Z"/>
  <path class="cls-1" d="M371.67,105.68c-3.78,4.68-5.9,11.78-6.34,21.4.49-9.59,2.63-16.71,6.42-21.37,2.98-3.68,7.17-6.05,12.56-7.17-5.44,1.1-9.66,3.49-12.64,7.15ZM469.88,31.11h29.38v22.6h-29.38v-22.6ZM469.88,72.92h29.38v116.39h-29.38v-116.39ZM564.79,72.92h30.96v27.12h-30.96v62.15h30.96v27.12h-60.34v-89.27h-18.08v-27.12h18.08V31.11h29.38v41.81ZM647.28,105.46c-3.47,5.12-5.2,13.64-5.2,25.54s1.73,20.45,5.2,25.65c3.46,5.2,9.94,7.8,19.43,7.8,7.68,0,12.99-1.92,15.93-5.76s4.63-9.45,5.09-16.84h29.38c0,9.19-1.96,17.55-5.88,25.09-3.92,7.53-9.72,13.52-17.4,17.97-7.68,4.44-16.88,6.67-27.57,6.67-17.48,0-30.77-5.5-39.89-16.5-9.12-11-13.67-25.68-13.67-44.07s4.56-33.03,13.67-43.96c9.12-10.92,22.41-16.38,39.89-16.38,10.7,0,19.89,2.23,27.57,6.67,7.68,4.45,13.48,10.43,17.4,17.97,3.92,7.53,5.88,15.9,5.88,25.09h-29.38c-.45-7.38-2.15-13-5.09-16.84s-8.25-5.76-15.93-5.76c-9.49,0-15.97,2.56-19.43,7.68ZM836.43,72.92h-88.14v25.99h58.76v24.86c-3.02-4.52-6.97-7.91-11.86-10.17-4.9-2.26-11.41-3.39-19.55-3.39-8.74,0-16.16,1.88-22.26,5.65-6.1,3.77-10.66,8.74-13.67,14.92-3.02,6.18-4.52,12.88-4.52,20.11s1.5,13.94,4.52,20.11c3.01,6.18,7.57,11.15,13.67,14.91,6.1,3.76,13.52,5.65,22.26,5.65,7.98,0,14.46-1.17,19.43-3.5,4.97-2.33,8.96-5.69,11.98-10.06v11.3h44.07v-28.25h-14.69v-88.14ZM801.86,162.64c-3.47,3.02-8.81,4.52-16.05,4.52s-12.58-1.5-16.04-4.52c-3.47-3.01-5.2-6.93-5.2-11.75s1.73-8.74,5.2-11.75c3.46-3.01,8.81-4.52,16.04-4.52s12.58,1.51,16.05,4.52c3.46,3.02,5.2,6.93,5.2,11.75s-1.73,8.74-5.2,11.75ZM964.12,137.33c3.01,4.52,4.52,10.47,4.52,17.85,0,11.3-4.45,20.19-13.34,26.67-8.89,6.48-20.11,9.72-33.67,9.72-9.34,0-18.08-1.09-26.21-3.28s-16.12-5.91-23.96-11.19v-29.61c9.94,6.18,18.98,10.55,27.12,13.11,8.14,2.56,16.57,3.84,25.31,3.84,5.12,0,8.96-.9,11.52-2.71,2.56-1.81,3.84-4.22,3.84-7.23,0-3.46-1.51-6.1-4.52-7.91-3.02-1.81-8.89-3.39-17.63-4.75-16.72-2.56-28.51-7.01-35.37-13.33-6.86-6.33-10.28-14.31-10.28-23.96,0-11.15,4.07-19.58,12.2-25.31,8.14-5.72,18.61-8.59,31.41-8.59,7.98,0,16.08,1.02,24.29,3.05,8.21,2.03,14.95,4.94,20.23,8.7v27.12c-7.84-3.92-15.93-6.85-24.29-8.81-8.36-1.96-15.86-2.94-22.49-2.94-7.99,0-11.98,2.71-11.98,8.14,0,3.02,1.36,5.42,4.07,7.23s8.36,3.62,16.95,5.42c11.9,2.41,21.17,5.01,27.8,7.8,6.63,2.79,11.45,6.44,14.46,10.96ZM1027.39,72.92h30.96v27.12h-30.96v62.15h30.96v27.12h-60.34v-89.27h-18.08v-27.12h18.08V31.11h29.38v41.81ZM448.57,118.83c.07-.17,0-.34-.1-.44-5.66-25.98-28.25-45.53-55.24-45.87h-.68c-.34,0-.59,0-.93.1-9.56.07-18.44,2.71-26.4,7.1l-.29.17V30.17h-29.72v49.75h29.67l-.24.15c-15.76,8.81-26.91,25.06-29.13,44.09v66.09h29.72v-14.39c7.51,11.08,18.61,16.66,33.59,16.66,16.74,0,29.35-5.76,37.82-17.18,8.47-11.42,12.69-26.06,12.69-43.99,0-4.49-.24-8.64-.76-12.52ZM365.23,131.34c0-1.46.02-2.88.1-4.27.49-9.59,2.63-16.71,6.42-21.37,2.98-3.68,7.17-6.05,12.56-7.17,1.9-.41,3.93-.66,6.12-.73.56-.02,1.12-.02,1.71-.02,9.34,0,16.15,2.63,20.44,7.9,4.29,5.29,6.44,13.71,6.44,25.32s-2.15,20.08-6.44,25.42c-4.29,5.34-11.1,8.03-20.44,8.03s-16.18-2.68-20.47-8.03c-4.03-5-6.17-12.76-6.42-23.27-.02-.59-.02-1.2-.02-1.81Z"/>
</svg>